<svg preserveAspectRatio="none" xmlns="http://www.w3.org/2000/svg" xmlns:xlink="http://www.w3.org/1999/xlink" width="1010.938" height="603.893" viewBox="0 0 1010.938 603.893">
  <defs>
    <filter id="Rettangolo_10" x="0" y="90.974" width="565.706" height="42.267" filterUnits="userSpaceOnUse">
      <feOffset dx="4" input="SourceAlpha"/>
      <feGaussianBlur stdDeviation="1" result="blur"/>
      <feFlood flood-opacity="0.161"/>
      <feComposite operator="in" in2="blur"/>
      <feComposite in="SourceGraphic"/>
    </filter>
    <filter id="Tracciato_5" x="464.466" y="0" width="141.966" height="142.844" filterUnits="userSpaceOnUse">
      <feOffset dy="3" input="SourceAlpha"/>
      <feGaussianBlur stdDeviation="3" result="blur-2"/>
      <feFlood flood-opacity="0.161"/>
      <feComposite operator="in" in2="blur-2"/>
      <feComposite in="SourceGraphic"/>
    </filter>
    <filter id="Rettangolo_9" x="535.449" y="92.381" width="475.49" height="41.464" filterUnits="userSpaceOnUse">
      <feOffset dx="4" input="SourceAlpha"/>
      <feGaussianBlur stdDeviation="1" result="blur-3"/>
      <feFlood flood-opacity="0.161"/>
      <feComposite operator="in" in2="blur-3"/>
      <feComposite in="SourceGraphic"/>
    </filter>
    <filter id="Rettangolo_19" x="0" y="280.023" width="565.706" height="42.267" filterUnits="userSpaceOnUse">
      <feOffset dx="4" input="SourceAlpha"/>
      <feGaussianBlur stdDeviation="1" result="blur-4"/>
      <feFlood flood-opacity="0.161"/>
      <feComposite operator="in" in2="blur-4"/>
      <feComposite in="SourceGraphic"/>
    </filter>
    <filter id="Rettangolo_21" x="522.706" y="280.023" width="488.232" height="42.267" filterUnits="userSpaceOnUse">
      <feOffset dx="4" input="SourceAlpha"/>
      <feGaussianBlur stdDeviation="1" result="blur-5"/>
      <feFlood flood-opacity="0.161"/>
      <feComposite operator="in" in2="blur-5"/>
      <feComposite in="SourceGraphic"/>
    </filter>
  </defs>
  <g transform="matrix(1, 0, 0, 1, 0, 0)" filter="url(#Rettangolo_10)">
    <rect id="Rettangolo_10-2" data-name="Rettangolo 10" width="558.706" height="36.267" transform="translate(0 93.97)" fill="#2b817e"/>
  </g>
  <g transform="matrix(1, 0, 0, 1, 0, 0)" filter="url(#Tracciato_5)">
    <g id="Tracciato_5-2" data-name="Tracciato 5" transform="translate(473.47 6)" fill="none">
      <path d="M61.983,0c34.232,0,61.983,27.947,61.983,62.422s-27.751,62.422-61.983,62.422S0,96.9,0,62.422,27.751,0,61.983,0Z" stroke="none"/>
      <path d="M 61.9827995300293 35.99999237060547 C 47.65585327148438 35.99999237060547 36.00000762939453 47.85299682617188 36.00000762939453 62.42225646972656 C 36.00000762939453 76.99151611328125 47.65585327148438 88.84452056884766 61.9827995300293 88.84452056884766 C 76.30974578857422 88.84452056884766 87.96559143066406 76.99151611328125 87.96559143066406 62.42225646972656 C 87.96559143066406 47.85299682617188 76.30974578857422 35.99999237060547 61.9827995300293 35.99999237060547 M 61.9827995300293 -7.62939453125e-06 C 96.21495819091797 -7.62939453125e-06 123.9655914306641 27.94741058349609 123.9655914306641 62.42225646972656 C 123.9655914306641 96.8970947265625 96.21495819091797 124.8445205688477 61.9827995300293 124.8445205688477 C 27.75064086914063 124.8445205688477 7.62939453125e-06 96.8970947265625 7.62939453125e-06 62.42225646972656 C 7.62939453125e-06 27.94741058349609 27.75064086914063 -7.62939453125e-06 61.9827995300293 -7.62939453125e-06 Z" stroke="none" fill="#2b817e"/>
    </g>
  </g>
  <g transform="matrix(1, 0, 0, 1, 0, 0)" filter="url(#Rettangolo_9)">
    <rect id="Rettangolo_9-2" data-name="Rettangolo 9" width="468.49" height="35.464" transform="translate(535.45 95.38)" fill="#2b817e"/>
  </g>
  <g transform="matrix(1, 0, 0, 1, 0, 0)" filter="url(#Rettangolo_19)">
    <rect id="Rettangolo_19-2" data-name="Rettangolo 19" width="558.706" height="36.267" transform="translate(0 283.02)" fill="#2b817e"/>
  </g>
  <g transform="matrix(1, 0, 0, 1, 0, 0)" filter="url(#Rettangolo_21)">
    <rect id="Rettangolo_21-2" data-name="Rettangolo 21" width="481.232" height="36.267" transform="translate(522.71 283.02)" fill="#2b817e"/>
  </g>
  <rect id="Rettangolo_45" data-name="Rettangolo 45" width="535.438" height="36.267" transform="translate(0 383.023)" fill="#2b817e"/>
  <rect id="Rettangolo_46" data-name="Rettangolo 46" width="535.438" height="36.267" transform="translate(0 475.313)" fill="#2b817e"/>
  <rect id="Rettangolo_47" data-name="Rettangolo 47" width="535.438" height="36.267" transform="translate(0 567.625)" fill="#2b817e"/>
</svg>
